<svg xmlns="http://www.w3.org/2000/svg" version="1.1" xmlns:xlink="http://www.w3.org/1999/xlink" width="32" height="32"><svg width="32" height="32" viewBox="0 0 32 32" xmlns="http://www.w3.org/2000/svg">
  <!-- Background circle with gradient -->
  <defs>
    <linearGradient id="SvgjsLinearGradient1003" x1="0%" y1="0%" x2="100%" y2="100%">
      <stop offset="0%" style="stop-color:#0077cc;stop-opacity:1"></stop>
      <stop offset="50%" style="stop-color:#00aaff;stop-opacity:1"></stop>
      <stop offset="100%" style="stop-color:#ffaa00;stop-opacity:1"></stop>
    </linearGradient>
    <radialGradient id="SvgjsRadialGradient1002" cx="50%" cy="50%" r="50%">
      <stop offset="0%" style="stop-color:#ffffff;stop-opacity:0.3"></stop>
      <stop offset="100%" style="stop-color:#ffffff;stop-opacity:0"></stop>
    </radialGradient>
  </defs>
  
  <!-- Main background -->
  <circle cx="16" cy="16" r="15" fill="url(#bgGradient)" stroke="#ffffff" stroke-width="1"></circle>
  
  <!-- Letter 'd' design -->
  <g fill="#ffffff" font-family="Inter, Arial, sans-serif" font-weight="700" font-size="18">
    <!-- Main 'd' letter -->
    <path d="M8 8 L8 24 L15 24 C19 24 22 21 22 16 C22 11 19 8 15 8 L8 8 Z M11 11 L15 11 C17 11 19 12.5 19 16 C19 19.5 17 21 15 21 L11 21 L11 11 Z"></path>
  </g>
  
  <!-- Subtle glow overlay -->
  <circle cx="16" cy="16" r="15" fill="url(#glowGradient)"></circle>
  
  <!-- Small accent dot (representing the 'i' in dias) -->
  <circle cx="24" cy="12" r="2" fill="#ffcc00" stroke="#ffffff" stroke-width="0.5"></circle>
</svg><style>@media (prefers-color-scheme: light) { :root { filter: none; } }
@media (prefers-color-scheme: dark) { :root { filter: none; } }
</style></svg>